<svg version="1.2" xmlns="http://www.w3.org/2000/svg" viewBox="0 0 57 67" width="57" height="67">
	<title>logo-black</title>
	<style>
		.s0 { fill: #2a3647 } 
		.s1 { fill: #29abe2 } 
	</style>
	<path class="s0" d="m40.7 0h-12.3v13.9h12.3z"/>
	<path class="s0" d="m28.4 25.2h12.3v19.6c0.1 4.7-1.3 9.3-3.9 13.3-2.6 3.8-7.6 8.4-16.8 8.4-10.1 0-15.9-4.7-19.1-7.2l7.8-9.4c3.1 2.4 6 4.5 11.3 4.5 4.1 0 5.7-1.6 6.6-3 1.3-2 1.9-4.3 1.9-6.6z"/>
	<path class="s1" d="m22.1 16.4h-12.3v12.2h12.3z"/>
	<path class="s0" d="m47.2 60.8c0 2.6-1.3 4-3.2 4-1.9 0-3.1-1.7-3.1-3.9 0-2.2 1.3-3.9 3.2-3.9 1.9 0 3.1 1.7 3.1 3.8zm-4.9 0.1c0 1.6 0.7 2.7 1.8 2.7 1 0 1.7-1.2 1.7-2.8 0-1.4-0.6-2.7-1.7-2.7-1.2 0-1.8 1.3-1.8 2.8z"/>
	<path class="s0" d="m49.6 57.1v7.5h-1.3v-7.5z"/>
	<path class="s0" d="m51.1 64.6v-7.5h1.5l1.7 3.1q0.6 1.2 1.1 2.5-0.1-1.4-0.1-3.2v-2.4h1.2v7.5h-1.4l-1.7-3.1q-0.6-1.3-1.1-2.6c0 0.9 0 2 0 3.3v2.4z"/>
</svg>